HIERARCHY
ROOT root
{
	OFFSET 0.000000 0.000000 0.000000
	CHANNELS 6 Xposition Yposition Zposition Zrotation Yrotation Xrotation
	JOINT lhip
	{
		OFFSET 0.058581 -0.082280 -0.017664
		CHANNELS 3 Zrotation Yrotation Xrotation
		JOINT lknee
		{
			OFFSET 0.043451 -0.386469 0.008037
			CHANNELS 3 Zrotation Yrotation Xrotation
			JOINT lankle
			{
				OFFSET -0.014790 -0.426874 -0.037428
				CHANNELS 3 Zrotation Yrotation Xrotation
				JOINT ltoe
				{
					OFFSET 0.041054 -0.060286 0.122042
					CHANNELS 3 Zrotation Yrotation Xrotation
					End Site
					{
						OFFSET 0.000000 0.000000 0.000000
					}
				}
			}
		}
	}
	JOINT rhip
	{
		OFFSET -0.060310 -0.090513 -0.013543
		CHANNELS 3 Zrotation Yrotation Xrotation
		JOINT rknee
		{
			OFFSET -0.043257 -0.383688 -0.004843
			CHANNELS 3 Zrotation Yrotation Xrotation
			JOINT rankle
			{
				OFFSET 0.019056 -0.420046 -0.034562
				CHANNELS 3 Zrotation Yrotation Xrotation
				JOINT rtoe
				{
					OFFSET -0.034840 -0.062106 0.130323
					CHANNELS 3 Zrotation Yrotation Xrotation
					End Site
					{
						OFFSET 0.000000 0.000000 0.000000
					}
				}
			}
		}
	}
	JOINT lowerback
	{
		OFFSET 0.004439 0.124404 -0.038385
		CHANNELS 3 Zrotation Yrotation Xrotation
		JOINT upperback
		{
			OFFSET 0.004488 0.137956 0.026820
			CHANNELS 3 Zrotation Yrotation Xrotation
			JOINT chest
			{
				OFFSET -0.002265 0.056032 0.002855
				CHANNELS 3 Zrotation Yrotation Xrotation
				JOINT lowerneck
				{
					OFFSET -0.013390 0.211636 -0.033468
					CHANNELS 3 Zrotation Yrotation Xrotation
					JOINT upperneck
					{
						OFFSET 0.010113 0.088937 0.050410
						CHANNELS 3 Zrotation Yrotation Xrotation
						End Site
						{
							OFFSET 0.000000 0.000000 0.000000
						}
					}
				}
				JOINT lclavicle
				{
					OFFSET 0.071702 0.114000 -0.018898
					CHANNELS 3 Zrotation Yrotation Xrotation
					JOINT lshoulder
					{
						OFFSET 0.122921 0.045205 -0.019046
						CHANNELS 3 Zrotation Yrotation Xrotation
						JOINT lelbow
						{
							OFFSET 0.255332 -0.015649 -0.022946
							CHANNELS 3 Zrotation Yrotation Xrotation
							JOINT lwrist
							{
								OFFSET 0.265709 0.012698 -0.007375
								CHANNELS 3 Zrotation Yrotation Xrotation
								End Site
								{
									OFFSET 0.000000 0.000000 0.000000
								}
							}
						}
					}
				}
				JOINT rclavicle
				{
					OFFSET -0.082954 0.112472 -0.023707
					CHANNELS 3 Zrotation Yrotation Xrotation
					JOINT rshoulder
					{
						OFFSET -0.113228 0.046853 -0.008472
						CHANNELS 3 Zrotation Yrotation Xrotation
						JOINT relbow
						{
							OFFSET -0.260127 -0.014369 -0.031269
							CHANNELS 3 Zrotation Yrotation Xrotation
							JOINT rwrist
							{
								OFFSET -0.269108 0.006794 -0.006027
								CHANNELS 3 Zrotation Yrotation Xrotation
								End Site
								{
									OFFSET 0.000000 0.000000 0.000000
								}
							}
						}
					}
				}
			}
		}
	}
}
MOTION
Frames: 16
Frame Time: 0.033333
0.328652 0.574808 0.985219 2.853843 -3.552637 95.621123 -6.825561 -6.327451 -24.965398 -5.739797 -0.124738 16.979942 7.831569 3.360065 -14.939399 0.000000 -0.000000 0.000000 -11.761066 -4.227693 -2.955381 1.745411 -6.045263 22.432527 6.252596 -8.242126 -24.328873 0.000000 -0.000000 0.000000 1.054740 5.551731 13.115676 1.146711 -2.829911 -7.404769 -1.231676 -0.217226 0.967055 -1.507866 -2.336311 -3.778928 -10.457732 -8.836749 14.129605 -24.154955 -1.863466 -1.969246 -47.949134 -7.332135 5.561587 16.942803 -34.300945 -5.034606 9.240948 -4.043073 -7.300377 20.434119 8.056820 -8.237742 51.224710 28.709603 15.397509 -85.195321 69.596910 -69.181932 -1.956120 4.022629 -10.598271 
0.322674 0.581500 0.985805 4.061832 -3.249970 95.367759 -6.144292 -6.337508 -25.133677 -5.742350 -0.634212 16.738215 7.241340 2.771943 -14.274027 0.000000 -0.000000 0.000000 -10.880618 -4.548028 -1.662980 2.006686 -7.058209 20.071160 5.917052 -8.520911 -24.416393 0.000000 -0.000000 0.000000 0.918714 5.766492 13.180846 1.098655 -3.129009 -6.493458 -1.046807 -0.046621 1.142788 -1.532659 -0.543211 -4.957521 -9.815770 -7.649869 13.383309 -23.794156 -2.121324 -2.280831 -48.452184 -7.982363 5.423691 16.822242 -33.732951 -5.674878 9.945306 -4.477139 -7.350370 20.966338 8.121412 -8.196915 52.162186 27.803658 15.549884 -79.704137 69.724131 -64.411246 -2.253999 5.054908 -10.679180 
0.317447 0.587404 0.987099 5.895775 -2.878131 95.260576 -5.516245 -6.887644 -25.430501 -5.707425 -1.600316 16.529222 6.945975 2.515153 -13.576619 0.000000 -0.000000 0.000000 -9.864890 -5.041957 -0.132382 2.542092 -7.740204 17.224812 5.573059 -9.471462 -24.448189 0.000000 -0.000000 0.000000 1.087413 6.060928 13.590267 0.897255 -3.426880 -7.236066 -0.815474 -0.102592 1.541696 -1.972552 0.337371 -4.943579 -8.860899 -6.396834 12.266243 -23.670715 -2.609078 -2.044320 -48.836007 -8.404213 5.761178 16.007136 -32.765885 -5.197893 13.202938 -4.968119 -7.629641 20.983591 8.167847 -7.323614 52.449225 25.983318 15.463856 -68.526961 69.455144 -54.713480 -6.766494 6.439030 -10.262078 
0.310898 0.595138 0.987876 7.539430 -2.536612 95.211908 -4.763336 -7.403151 -25.882863 -5.653571 -2.297087 16.123970 6.629889 2.336919 -12.710426 0.000000 -0.000000 0.000000 -8.670401 -5.175017 0.598557 2.750132 -8.293950 15.446617 5.234902 -10.462147 -24.355248 0.000000 -0.000000 0.000000 1.016058 6.128601 13.626999 0.708606 -3.493975 -6.978445 -0.663960 -0.066437 1.610083 -2.365810 1.474802 -5.395228 -8.307720 -5.223317 11.217606 -23.403780 -3.083636 -1.871601 -49.175482 -8.789164 6.470311 15.221941 -32.137814 -4.480010 14.540578 -5.208835 -8.218401 21.165082 8.364329 -6.444483 52.130817 24.617124 15.626183 -53.133879 68.769195 -40.755396 -9.593586 7.651482 -9.835492 
0.303517 0.603534 0.988432 9.149575 -2.197202 95.168244 -3.996650 -7.670348 -26.386378 -5.718077 -3.284195 15.694061 6.098883 2.336158 -11.712377 0.000000 -0.000000 0.000000 -7.408888 -5.511660 0.859905 2.752237 -8.605922 14.298611 4.778998 -11.423159 -24.467816 0.000000 -0.000000 0.000000 1.045838 6.117541 14.013879 0.285199 -3.381284 -7.228843 -0.614324 -0.023984 1.835895 -3.112468 2.517830 -6.026629 -7.964866 -3.915917 9.977547 -23.239833 -3.394692 -2.047260 -49.188042 -9.118676 7.200821 13.583950 -31.647886 -3.055864 18.005588 -5.542596 -8.577508 21.207616 9.000886 -5.521356 51.774458 23.492135 15.989440 -37.120400 65.744832 -26.626116 -15.923830 9.009938 -8.267761 
0.295421 0.612865 0.988208 10.767693 -1.816348 95.142076 -3.064575 -8.135399 -27.171021 -5.816233 -4.026873 15.517726 5.861225 2.200749 -10.525228 0.000000 -0.000000 0.000000 -6.039722 -5.771565 0.723512 2.735672 -8.752709 13.834706 4.184361 -12.364056 -24.839560 0.000000 -0.000000 0.000000 0.963790 6.137140 14.133926 -0.191692 -3.220385 -7.180240 -0.548446 0.178464 1.694786 -3.902802 3.096629 -5.663449 -7.431833 -2.692216 8.693353 -22.843640 -4.163086 -1.644301 -49.592247 -9.405145 7.908084 12.679193 -31.033740 -1.660296 20.191102 -5.508728 -8.908013 20.923680 10.301399 -3.942370 50.803695 22.581617 15.704114 -23.484892 59.761357 -12.651166 -18.852747 10.596804 -3.713523 
0.287292 0.623057 0.987653 12.522652 -1.437238 94.966376 -2.238461 -8.715894 -27.916073 -5.836846 -4.823488 15.418788 5.427690 2.278925 -9.699379 0.000000 -0.000000 0.000000 -4.796802 -6.233579 0.540432 2.770377 -8.990944 13.569019 3.440460 -12.944933 -25.682996 0.000000 -0.000000 0.000000 1.018946 6.039813 14.462033 -0.773928 -3.001943 -7.110046 -0.560028 0.334690 1.576649 -4.510817 3.101970 -5.666342 -6.951080 -2.072600 7.593257 -22.453541 -4.581931 -1.458878 -50.267943 -9.724390 8.753045 12.411051 -30.637137 0.070420 19.183551 -5.441335 -9.345609 20.364444 11.843736 -2.747133 50.027586 21.916777 15.754750 -12.040925 51.040361 0.243405 -16.696112 11.019529 0.589879 
0.278693 0.633302 0.987147 14.272069 -1.107911 94.690183 -1.404117 -9.173870 -28.396928 -5.979732 -5.468377 14.957161 4.532020 2.135374 -8.754664 0.000000 -0.000000 0.000000 -3.445833 -6.235110 0.362574 2.673609 -9.496702 13.419115 2.931361 -13.998212 -26.551457 0.000000 -0.000000 0.000000 0.802463 5.915336 14.966512 -1.232847 -2.666457 -7.430246 -0.467751 0.553690 1.956827 -3.676457 1.290319 -8.132226 -6.210412 -3.650185 7.419294 -22.499334 -4.762893 -1.537631 -50.813602 -10.153900 9.693588 12.797511 -30.366925 1.191604 14.746668 -5.398305 -9.288493 19.454607 13.460985 -2.214048 50.094381 21.106996 16.540631 -4.548351 40.909212 9.520312 -7.976837 7.761806 3.256047 
0.270077 0.643568 0.986513 16.237928 -0.696011 94.231048 -0.651481 -9.556160 -28.722761 -6.117555 -6.269277 14.576832 3.629695 1.885036 -7.739011 0.000000 -0.000000 0.000000 -2.233085 -6.544371 -0.014682 2.527591 -10.639367 14.137519 2.399683 -14.322505 -27.481129 0.000000 -0.000000 0.000000 0.882452 5.557260 16.271465 -2.051428 -2.422524 -7.963805 -0.630659 1.121741 0.883089 -5.529297 3.279551 -4.685809 -5.361461 -1.481357 6.473105 -22.040674 -5.322030 -1.279891 -51.235301 -9.611029 10.116981 12.457512 -30.696091 3.050367 12.325014 -5.052468 -9.770351 18.670488 14.742293 -0.588803 50.403904 18.435176 17.156159 0.401827 34.415327 17.348139 -3.600792 5.834396 4.076560 
0.261219 0.654963 0.985672 18.372562 -0.186652 93.804349 0.027761 -9.648469 -29.188441 -6.003311 -6.939170 14.159231 2.932064 1.470538 -7.134109 0.000000 -0.000000 0.000000 -1.274977 -7.017533 -0.642191 2.819841 -12.010435 15.126296 1.688718 -14.422798 -28.003899 0.000000 -0.000000 0.000000 0.998908 5.341914 16.764409 -2.672353 -2.230305 -7.253811 -0.871577 1.532098 0.043125 -7.442017 5.667944 -2.113191 -4.753208 0.884892 5.494657 -22.447391 -5.701992 -1.108773 -50.829640 -9.799243 9.945299 11.788473 -30.846265 3.895313 11.628886 -5.900420 -9.213790 19.306129 14.897241 1.120191 49.568998 16.013913 17.020125 3.298539 31.318112 23.491094 -1.012401 8.243174 7.122732 
0.252416 0.665665 0.984175 20.791556 0.391483 93.751326 0.585748 -9.660171 -29.909726 -5.928693 -8.225754 13.389306 2.305103 0.664733 -5.643451 0.000000 -0.000000 0.000000 0.108549 -7.148099 -1.657366 2.923410 -12.886440 15.826777 1.418605 -15.544651 -28.664098 0.000000 -0.000000 0.000000 0.902880 5.271214 17.010799 -2.798027 -2.040230 -7.353610 -1.038424 1.386901 0.117294 -6.880873 5.111072 -2.654312 -3.872809 -0.072661 5.503732 -23.320767 -5.143379 -1.120945 -50.191123 -10.207971 9.862753 10.824271 -31.602249 4.448534 11.736737 -6.245096 -8.226965 19.581539 13.484937 1.393484 50.699798 12.981140 17.357969 3.870489 30.437848 25.359116 -1.293240 8.306259 8.480526 
0.243710 0.676859 0.982881 23.347501 1.111359 93.379693 1.140948 -9.950124 -30.142151 -5.705696 -9.477080 12.359334 1.149503 -0.192035 -4.222506 0.000000 -0.000000 0.000000 1.637882 -7.001863 -2.264767 2.938499 -14.278543 16.253075 1.048569 -16.759176 -29.111094 0.000000 -0.000000 0.000000 0.850202 5.092602 17.575706 -2.765078 -2.029409 -7.583982 -1.149394 1.177840 0.452307 -7.053016 5.874856 -2.979151 -3.518922 -0.318322 5.316988 -23.806773 -4.564029 -1.134359 -50.105256 -10.429603 9.829115 10.372733 -32.191504 4.478342 10.151317 -6.243762 -8.068745 20.150695 11.193768 1.279206 51.888587 9.898543 16.847797 3.453445 31.387383 23.747445 -0.067075 6.989952 4.885213 
0.235539 0.686668 0.980879 25.716886 1.636485 93.097695 1.356646 -10.125990 -30.251707 -5.302721 -10.764708 11.032344 0.359866 -0.872290 -2.725826 0.000000 -0.000000 0.000000 2.739112 -8.511823 -2.805921 2.981067 -14.490972 16.423627 0.554210 -17.413434 -29.411666 0.000000 -0.000000 0.000000 0.262376 5.399226 16.941327 -2.490207 -2.239816 -6.738202 -1.063069 0.766693 1.016710 -7.235062 6.636872 -3.328590 -3.258818 -0.271367 4.721658 -24.167421 -3.990665 -0.756543 -49.501264 -10.435729 9.930282 9.380726 -33.318117 4.204591 10.491134 -5.622227 -8.668730 20.498396 8.754883 0.908407 52.742066 7.531028 15.959655 3.497299 32.425047 20.446004 -0.936650 6.001577 0.903554 
0.224157 0.698795 0.977089 26.896507 2.338985 93.908682 2.322495 -8.814911 -32.129763 -5.415659 -11.264975 10.388626 -0.356916 -1.926569 -1.999341 0.000000 -0.000000 0.000000 4.162141 -12.991958 -6.012459 2.272997 -13.187544 19.020599 0.371170 -14.914456 -30.823375 0.000000 -0.000000 0.000000 -0.328795 6.394080 15.800652 -2.332154 -2.384417 -6.927875 -0.984357 0.509868 1.856620 -6.868371 7.293830 -3.478119 -2.966923 -0.674802 4.658715 -24.010340 -3.246028 -0.914890 -49.338496 -10.404600 10.019100 8.283966 -32.895122 5.041306 11.256058 -5.134091 -9.253438 20.084569 6.254343 0.585335 54.829609 6.356430 14.397877 3.114878 31.737004 17.682349 -0.964567 5.448171 -2.375169 
0.220007 0.706720 0.978839 29.927876 3.292973 91.550461 2.121333 -9.736735 -28.869712 -4.485320 -13.449306 7.712048 -2.132822 -1.802276 -0.383319 0.000000 -0.000000 0.000000 5.412677 -8.345068 -1.862602 3.575664 -16.567283 14.675351 -0.168455 -18.819360 -29.579631 0.000000 -0.000000 0.000000 0.354642 4.980449 18.258995 -2.448445 -2.388926 -6.153203 -0.912613 0.469916 0.748202 -7.309364 7.463169 -2.289829 -2.687520 -0.084070 3.831484 -24.981761 -3.525560 -0.277658 -48.278758 -9.207831 9.593022 8.538894 -32.136334 4.225871 8.894456 -5.334707 -8.166905 20.265675 5.510584 0.148263 55.284583 3.834692 13.565339 2.192839 30.705624 14.233260 -2.111593 4.409948 -5.158573 
0.213276 0.717020 0.977034 31.105032 3.936775 91.443762 2.688561 -9.676235 -29.072173 -4.034979 -13.596262 6.167711 -3.619979 -1.971993 0.503654 0.000000 -0.000000 0.000000 6.297268 -8.846365 -2.581507 3.692519 -17.065074 14.580101 -0.656679 -18.904883 -29.660212 0.000000 -0.000000 0.000000 0.346661 5.278116 18.233779 -2.562983 -2.266752 -5.956103 -0.794966 0.602657 0.700752 -7.602264 7.769449 -2.558388 -2.499589 0.067370 4.011302 -24.916536 -3.715733 -0.206505 -48.057043 -8.314901 9.405283 8.925161 -30.702099 4.064519 7.549345 -5.393386 -7.092709 20.293481 5.686859 0.944102 55.521122 2.361070 12.567327 1.094005 29.252106 12.467650 0.384837 4.057436 -6.066700 
